<svg width="27" height="13" viewBox="0 0 27 13" fill="none" xmlns="http://www.w3.org/2000/svg">
<path d="M11.6279 6.1282C10.8203 6.93582 10.8203 8.2453 11.6279 9.05297C12.4355 9.86054 13.745 9.86054 14.5527 9.05297C15.3603 8.24535 15.3603 6.93582 14.5527 6.1282C13.745 5.32058 12.4355 5.32052 11.6279 6.1282ZM14.4964 7.53429C14.3287 7.70202 13.8905 7.53578 13.5178 7.16304C13.145 6.79036 12.9789 6.35213 13.1466 6.18441C13.3143 6.01668 13.7525 6.18292 14.1252 6.55566C14.498 6.92845 14.6642 7.36656 14.4964 7.53429Z" fill="#888888"/>
<path d="M26.1762 8.50656C26.0436 8.31619 25.914 8.12385 25.7829 7.93253C25.1872 7.06313 24.4911 6.26574 23.7342 5.533C22.7666 4.59609 21.7068 3.75326 20.5623 3.04189C19.4103 2.32585 18.1793 1.73978 16.8843 1.33284C15.8139 0.996485 14.7037 0.794977 13.5828 0.74529C12.541 0.699155 11.4956 0.802666 10.477 1.02242C9.14762 1.3093 7.8619 1.80681 6.66304 2.44591C5.47101 3.0814 4.35477 3.85402 3.32968 4.73333C2.82162 5.16917 2.33583 5.63189 1.87655 6.1188C1.44177 6.57972 1.02306 7.06228 0.651648 7.57612C0.518388 7.7605 0.390272 7.94822 0.261467 8.13562C0.177523 8.25785 0.0919884 8.37892 0.00963552 8.5021C-0.00669718 8.52649 -0.00144738 8.52824 0.0277182 8.55174C0.0873749 8.59967 0.147085 8.64777 0.206742 8.69576C0.419862 8.8671 0.623968 9.04877 0.836505 9.22085C1.36986 9.65266 1.92533 10.0573 2.49523 10.4394C3.62754 11.1985 4.82179 11.8669 6.0696 12.4166C6.32275 12.5282 6.57946 12.6303 6.8357 12.7345C6.26209 12.3708 5.69962 11.9946 5.15889 11.5829C4.61228 11.1668 4.08486 10.7259 3.57716 10.2631C2.97566 9.71475 2.40031 9.13653 1.86064 8.52718C2.8834 7.8612 3.92545 7.22576 4.99928 6.64516C6.04133 6.08179 7.11245 5.58237 8.21682 5.154C8.43879 5.06789 8.66321 4.98633 8.88969 4.90949C8.39351 5.68418 8.10556 6.60438 8.10556 7.59065C8.10556 10.3392 10.3417 12.5753 13.0902 12.5753C15.8388 12.5753 18.0749 10.3392 18.0749 7.59065C18.0749 6.60963 17.7898 5.69399 17.2985 4.9219C17.586 5.01905 17.871 5.12298 18.1534 5.23291C19.437 5.73281 20.6703 6.35409 21.8679 7.03285C22.6998 7.50448 23.5129 8.00804 24.315 8.52862C23.4121 9.5483 22.4128 10.4872 21.3443 11.3314C20.7035 11.8377 20.0338 12.2972 19.3446 12.7345C19.973 12.4794 20.5925 12.2103 21.1973 11.9027C21.8083 11.5923 22.4052 11.2544 22.987 10.8923C23.9384 10.3003 24.8673 9.65101 25.7136 8.91503C25.8102 8.83104 25.9093 8.75102 26.0091 8.67078C26.0594 8.63016 26.1099 8.5897 26.1602 8.54914C26.1853 8.52909 26.1901 8.5265 26.1762 8.50656ZM13.0902 10.9844C11.2188 10.9844 9.69636 9.46197 9.69636 7.5906C9.69636 5.71918 11.2188 4.19679 13.0902 4.19679C14.9616 4.19679 16.484 5.71923 16.484 7.5906C16.484 9.46197 14.9616 10.9844 13.0902 10.9844Z" fill="#888888"/>
</svg>
