<svg width="27" height="14" viewBox="0 0 27 14" fill="none" xmlns="http://www.w3.org/2000/svg">
<path d="M11.6279 5.82494C10.8203 6.54739 10.8203 7.71877 11.6279 8.44127C12.4355 9.16367 13.745 9.16367 14.5527 8.44127C15.3603 7.71882 15.3603 6.54739 14.5527 5.82494C13.745 5.10249 12.4355 5.10244 11.6279 5.82494ZM14.4964 7.08275C14.3287 7.23279 13.8905 7.08408 13.5178 6.75065C13.145 6.41727 12.9789 6.02526 13.1466 5.87522C13.3143 5.72518 13.7525 5.87389 14.1252 6.20732C14.498 6.54079 14.6642 6.93271 14.4964 7.08275Z" fill="#888888"/>
<path d="M26.1757 7.95243C26.0432 7.78213 25.9136 7.61008 25.7824 7.43893C25.1867 6.66122 24.4906 5.94793 23.7337 5.29246C22.7661 4.45436 21.7063 3.70041 20.5618 3.06406C19.4098 2.42353 18.1788 1.89927 16.8838 1.53525C15.8134 1.23436 14.7032 1.0541 13.5823 1.00965C12.5405 0.968385 11.4951 1.06098 10.4766 1.25755C9.14713 1.51418 7.86141 1.95923 6.66255 2.53093C5.47053 3.0994 4.35428 3.79054 3.32919 4.57712C2.82113 4.967 2.33534 5.38092 1.87606 5.81648C1.44128 6.2288 1.02257 6.66046 0.65116 7.12012C0.5179 7.28505 0.389784 7.45297 0.260978 7.62061C0.177035 7.72995 0.0915001 7.83825 0.00914724 7.94844C-0.00718546 7.97026 -0.00193567 7.97183 0.0272299 7.99284C0.0868866 8.03573 0.146596 8.07875 0.206253 8.12168C0.419374 8.27495 0.623479 8.43746 0.836017 8.59139C1.36937 8.97766 1.92485 9.3396 2.49474 9.68142C3.62705 10.3605 4.8213 10.9584 6.06911 11.4502C6.32227 11.55 6.57898 11.6413 6.83521 11.7345C6.2616 11.4091 5.69913 11.0726 5.1584 10.7044C4.61179 10.3321 4.08437 9.93772 3.57668 9.5237C2.97518 9.03321 2.39982 8.51597 1.86015 7.97088C2.88291 7.37513 3.92496 6.80671 4.99879 6.28733C6.04084 5.78337 7.11196 5.33662 8.21633 4.95343C8.4383 4.8764 8.66272 4.80344 8.8892 4.73471C8.39302 5.4277 8.10508 6.25085 8.10508 7.13312C8.10508 9.59182 10.3412 11.5921 13.0897 11.5921C15.8383 11.5921 18.0744 9.59182 18.0744 7.13312C18.0744 6.25555 17.7894 5.43647 17.298 4.7458C17.5855 4.83271 17.8705 4.92568 18.1529 5.02402C19.4365 5.4712 20.6699 6.02696 21.8674 6.63414C22.6994 7.05603 23.5124 7.50648 24.3145 7.97216C23.4116 8.88431 22.4124 9.72421 21.3438 10.4794C20.703 10.9323 20.0333 11.3433 19.3441 11.7345C19.9725 11.5063 20.5921 11.2655 21.1968 10.9905C21.8078 10.7127 22.4047 10.4105 22.9866 10.0866C23.9379 9.55704 24.8668 8.97619 25.7132 8.31783C25.8097 8.24269 25.9088 8.17111 26.0086 8.09934C26.059 8.063 26.1094 8.02681 26.1598 7.99052C26.1848 7.97259 26.1896 7.97026 26.1757 7.95243ZM13.0897 10.169C11.2183 10.169 9.69587 8.80708 9.69587 7.13307C9.69587 5.45901 11.2183 4.09717 13.0897 4.09717C14.9611 4.09717 16.4835 5.45905 16.4835 7.13307C16.4835 8.80708 14.9611 10.169 13.0897 10.169Z" fill="#888888"/>
<rect x="5.92135" y="11.6566" width="16.33" height="2.31564" transform="rotate(-42.3924 5.92135 11.6566)" fill="#888888" stroke="white" stroke-width="0.5"/>
</svg>
